<svg xmlns="http://www.w3.org/2000/svg" width="330" height="330" viewBox="0 0 3.3 3.3"><title>Geometry coordinates in metres</title><g><polygon points="3.15,1.65 3.1495482,1.6868118 3.1481932,1.7236015 3.1459357,1.7603468 3.1427771,1.7970257 3.1387193,1.833616 3.1337648,1.8700957 3.1279165,1.9064428 3.1211779,1.9426355 3.1135532,1.9786519 3.1050469,2.0144703 3.0956641,2.0500691 3.0854105,2.085427 3.0742923,2.1205226 3.0623161,2.1553348 3.0494892,2.1898426 3.0358193,2.2240251 3.0213146,2.257862 3.0059839,2.2913326 2.9898365,2.324417 2.9728819,2.3570951 2.9551305,2.3893473 2.9365929,2.4211541 2.9172803,2.4524964 2.8972044,2.4833553 2.8763772,2.5137123 2.8548113,2.543549 2.8325196,2.5728474 2.8095157,2.6015899 2.7858133,2.6297593 2.7614267,2.6573384 2.7363706,2.6843108 2.7106602,2.7106602 2.6843108,2.7363706 2.6573384,2.7614267 2.6297593,2.7858133 2.6015899,2.8095157 2.5728474,2.8325196 2.543549,2.8548113 2.5137123,2.8763772 2.4833553,2.8972044 2.4524964,2.9172803 2.4211541,2.9365929 2.3893473,2.9551305 2.3570951,2.9728819 2.324417,2.9898365 2.2913326,3.0059839 2.257862,3.0213146 2.2240251,3.0358193 2.1898426,3.0494892 2.1553348,3.0623161 2.1205226,3.0742923 2.085427,3.0854105 2.0500691,3.0956641 2.0144703,3.1050469 1.9786519,3.1135532 1.9426355,3.1211779 1.9064428,3.1279165 1.8700957,3.1337648 1.833616,3.1387193 1.7970257,3.1427771 1.7603468,3.1459357 1.7236015,3.1481932 1.6868118,3.1495482 1.65,3.15 1.6131882,3.1495482 1.5763985,3.1481932 1.5396532,3.1459357 1.5029743,3.1427771 1.466384,3.1387193 1.4299043,3.1337648 1.3935572,3.1279165 1.3573645,3.1211779 1.3213481,3.1135532 1.2855297,3.1050469 1.2499309,3.0956641 1.214573,3.0854105 1.1794774,3.0742923 1.1446652,3.0623161 1.1101574,3.0494892 1.0759749,3.0358193 1.042138,3.0213146 1.0086674,3.0059839 0.97558301,2.9898365 0.94290489,2.9728819 0.91065271,2.9551305 0.87884588,2.9365929 0.84750357,2.9172803 0.81664465,2.8972044 0.78628771,2.8763772 0.75645104,2.8548113 0.72715261,2.8325196 0.69841007,2.8095157 0.67024074,2.7858133 0.64266157,2.7614267 0.61568918,2.7363706 0.58933983,2.7106602 0.56362938,2.6843108 0.53857331,2.6573384 0.51418673,2.6297593 0.49048432,2.6015899 0.46748036,2.5728474 0.4451887,2.543549 0.42362278,2.5137123 0.40279558,2.4833553 0.38271965,2.4524964 0.36340708,2.4211541 0.34486951,2.3893473 0.3271181,2.3570951 0.31016355,2.324417 0.29401606,2.2913326 0.27868537,2.257862 0.2641807,2.2240251 0.2505108,2.1898426 0.2376839,2.1553348 0.22570773,2.1205226 0.2145895,2.085427 0.2043359,2.0500691 0.19495312,2.0144703 0.1864468,1.9786519 0.17882208,1.9426355 0.17208354,1.9064428 0.16623524,1.8700957 0.1612807,1.833616 0.15722291,1.7970257 0.15406431,1.7603468 0.15180682,1.7236015 0.15045177,1.6868118 0.15,1.65 0.15045177,1.6131882 0.15180682,1.5763985 0.15406431,1.5396532 0.15722291,1.5029743 0.1612807,1.466384 0.16623524,1.4299043 0.17208354,1.3935572 0.17882208,1.3573645 0.1864468,1.3213481 0.19495312,1.2855297 0.2043359,1.2499309 0.2145895,1.214573 0.22570773,1.1794774 0.2376839,1.1446652 0.2505108,1.1101574 0.2641807,1.0759749 0.27868537,1.042138 0.29401606,1.0086674 0.31016355,0.97558301 0.3271181,0.94290489 0.34486951,0.91065271 0.36340708,0.87884588 0.38271965,0.84750357 0.40279558,0.81664465 0.42362278,0.78628771 0.4451887,0.75645104 0.46748036,0.72715261 0.49048432,0.69841007 0.51418673,0.67024074 0.53857331,0.64266157 0.56362938,0.61568918 0.58933983,0.58933983 0.61568918,0.56362938 0.64266157,0.53857331 0.67024074,0.51418673 0.69841007,0.49048432 0.72715261,0.46748036 0.75645104,0.4451887 0.78628771,0.42362278 0.81664465,0.40279558 0.84750357,0.38271965 0.87884588,0.36340708 0.91065271,0.34486951 0.94290489,0.3271181 0.97558301,0.31016355 1.0086674,0.29401606 1.042138,0.27868537 1.0759749,0.2641807 1.1101574,0.2505108 1.1446652,0.2376839 1.1794774,0.22570773 1.214573,0.2145895 1.2499309,0.2043359 1.2855297,0.19495312 1.3213481,0.1864468 1.3573645,0.17882208 1.3935572,0.17208354 1.4299043,0.16623524 1.466384,0.1612807 1.5029743,0.15722291 1.5396532,0.15406431 1.5763985,0.15180682 1.6131882,0.15045177 1.65,0.15 1.6868118,0.15045177 1.7236015,0.15180682 1.7603468,0.15406431 1.7970257,0.15722291 1.833616,0.1612807 1.8700957,0.16623524 1.9064428,0.17208354 1.9426355,0.17882208 1.9786519,0.1864468 2.0144703,0.19495312 2.0500691,0.2043359 2.085427,0.2145895 2.1205226,0.22570773 2.1553348,0.2376839 2.1898426,0.2505108 2.2240251,0.2641807 2.257862,0.27868537 2.2913326,0.29401606 2.324417,0.31016355 2.3570951,0.3271181 2.3893473,0.34486951 2.4211541,0.36340708 2.4524964,0.38271965 2.4833553,0.40279558 2.5137123,0.42362278 2.543549,0.4451887 2.5728474,0.46748036 2.6015899,0.49048432 2.6297593,0.51418673 2.6573384,0.53857331 2.6843108,0.56362938 2.7106602,0.58933983 2.7363706,0.61568918 2.7614267,0.64266157 2.7858133,0.67024074 2.8095157,0.69841007 2.8325196,0.72715261 2.8548113,0.75645104 2.8763772,0.78628771 2.8972044,0.81664465 2.9172803,0.84750357 2.9365929,0.87884588 2.9551305,0.91065271 2.9728819,0.94290489 2.9898365,0.97558301 3.0059839,1.0086674 3.0213146,1.042138 3.0358193,1.0759749 3.0494892,1.1101574 3.0623161,1.1446652 3.0742923,1.1794774 3.0854105,1.214573 3.0956641,1.2499309 3.1050469,1.2855297 3.1135532,1.3213481 3.1211779,1.3573645 3.1279165,1.3935572 3.1337648,1.4299043 3.1387193,1.466384 3.1427771,1.5029743 3.1459357,1.5396532 3.1481932,1.5763985 3.1495482,1.6131882" fill="#b00904"/><polygon points="3.05,1.65 3.0495783,1.6843577 3.0483136,1.7186947 3.0462066,1.7529904 3.0432586,1.787224 3.0394713,1.8213749 3.0348471,1.8554227 3.0293887,1.8893466 3.0230994,1.9231265 3.015983,1.9567417 3.0080438,1.9901723 2.9992865,2.0233979 2.9897165,2.0563985 2.9793395,2.0891544 2.9681617,2.1216458 2.9561899,2.1538531 2.9434313,2.1857568 2.9298937,2.2173378 2.915585,2.2485771 2.900514,2.2794559 2.8846898,2.3099554 2.8681218,2.3400575 2.8508201,2.3697438 2.832795,2.3989967 2.8140575,2.4277983 2.7946187,2.4561315 2.7744905,2.483979 2.753685,2.5113242 2.7322146,2.5381506 2.7100924,2.564442 2.6873316,2.5901825 2.6639459,2.6153568 2.6399495,2.6399495 2.6153568,2.6639459 2.5901825,2.6873316 2.564442,2.7100924 2.5381506,2.7322146 2.5113242,2.753685 2.483979,2.7744905 2.4561315,2.7946187 2.4277983,2.8140575 2.3989967,2.832795 2.3697438,2.8508201 2.3400575,2.8681218 2.3099554,2.8846898 2.2794559,2.900514 2.2485771,2.915585 2.2173378,2.9298937 2.1857568,2.9434313 2.1538531,2.9561899 2.1216458,2.9681617 2.0891544,2.9793395 2.0563985,2.9897165 2.0233979,2.9992865 1.9901723,3.0080438 1.9567417,3.015983 1.9231265,3.0230994 1.8893466,3.0293887 1.8554227,3.0348471 1.8213749,3.0394713 1.787224,3.0432586 1.7529904,3.0462066 1.7186947,3.0483136 1.6843577,3.0495783 1.65,3.05 1.6156423,3.0495783 1.5813053,3.0483136 1.5470096,3.0462066 1.512776,3.0432586 1.4786251,3.0394713 1.4445773,3.0348471 1.4106534,3.0293887 1.3768735,3.0230994 1.3432583,3.015983 1.3098277,3.0080438 1.2766021,2.9992865 1.2436015,2.9897165 1.2108456,2.9793395 1.1783542,2.9681617 1.1461469,2.9561899 1.1142432,2.9434313 1.0826622,2.9298937 1.0514229,2.915585 1.0205441,2.900514 0.99004457,2.8846898 0.95994253,2.8681218 0.93025616,2.8508201 0.90100333,2.832795 0.87220167,2.8140575 0.84386853,2.7946187 0.81602097,2.7744905 0.78867577,2.753685 0.7618494,2.7322146 0.73555802,2.7100924 0.70981746,2.6873316 0.68464324,2.6639459 0.66005051,2.6399495 0.63605408,2.6153568 0.61266842,2.5901825 0.58990761,2.564442 0.56778537,2.5381506 0.546315,2.5113242 0.52550946,2.483979 0.50538126,2.4561315 0.48594254,2.4277983 0.46720501,2.3989967 0.44917995,2.3697438 0.43187821,2.3400575 0.41531023,2.3099554 0.39948598,2.2794559 0.38441499,2.2485771 0.37010634,2.2173378 0.35656865,2.1857568 0.34381008,2.1538531 0.33183831,2.1216458 0.32066055,2.0891544 0.31028353,2.0563985 0.30071351,2.0233979 0.29195625,1.9901723 0.28401702,1.9567417 0.27690061,1.9231265 0.2706113,1.8893466 0.26515289,1.8554227 0.26052865,1.8213749 0.25674138,1.787224 0.25379336,1.7529904 0.25168636,1.7186947 0.25042165,1.6843577 0.25,1.65 0.25042165,1.6156423 0.25168636,1.5813053 0.25379336,1.5470096 0.25674138,1.512776 0.26052865,1.4786251 0.26515289,1.4445773 0.2706113,1.4106534 0.27690061,1.3768735 0.28401702,1.3432583 0.29195625,1.3098277 0.30071351,1.2766021 0.31028353,1.2436015 0.32066055,1.2108456 0.33183831,1.1783542 0.34381008,1.1461469 0.35656865,1.1142432 0.37010634,1.0826622 0.38441499,1.0514229 0.39948598,1.0205441 0.41531023,0.99004457 0.43187821,0.95994253 0.44917995,0.93025616 0.46720501,0.90100333 0.48594254,0.87220167 0.50538126,0.84386853 0.52550946,0.81602097 0.546315,0.78867577 0.56778537,0.7618494 0.58990761,0.73555802 0.61266842,0.70981746 0.63605408,0.68464324 0.66005051,0.66005051 0.68464324,0.63605408 0.70981746,0.61266842 0.73555802,0.58990761 0.7618494,0.56778537 0.78867577,0.546315 0.81602097,0.52550946 0.84386853,0.50538126 0.87220167,0.48594254 0.90100333,0.46720501 0.93025616,0.44917995 0.95994253,0.43187821 0.99004457,0.41531023 1.0205441,0.39948598 1.0514229,0.38441499 1.0826622,0.37010634 1.1142432,0.35656865 1.1461469,0.34381008 1.1783542,0.33183831 1.2108456,0.32066055 1.2436015,0.31028353 1.2766021,0.30071351 1.3098277,0.29195625 1.3432583,0.28401702 1.3768735,0.27690061 1.4106534,0.2706113 1.4445773,0.26515289 1.4786251,0.26052865 1.512776,0.25674138 1.5470096,0.25379336 1.5813053,0.25168636 1.6156423,0.25042165 1.65,0.25 1.6843577,0.25042165 1.7186947,0.25168636 1.7529904,0.25379336 1.787224,0.25674138 1.8213749,0.26052865 1.8554227,0.26515289 1.8893466,0.2706113 1.9231265,0.27690061 1.9567417,0.28401702 1.9901723,0.29195625 2.0233979,0.30071351 2.0563985,0.31028353 2.0891544,0.32066055 2.1216458,0.33183831 2.1538531,0.34381008 2.1857568,0.35656865 2.2173378,0.37010634 2.2485771,0.38441499 2.2794559,0.39948598 2.3099554,0.41531023 2.3400575,0.43187821 2.3697438,0.44917995 2.3989967,0.46720501 2.4277983,0.48594254 2.4561315,0.50538126 2.483979,0.52550946 2.5113242,0.546315 2.5381506,0.56778537 2.564442,0.58990761 2.5901825,0.61266842 2.6153568,0.63605408 2.6399495,0.66005051 2.6639459,0.68464324 2.6873316,0.70981746 2.7100924,0.73555802 2.7322146,0.7618494 2.753685,0.78867577 2.7744905,0.81602097 2.7946187,0.84386853 2.8140575,0.87220167 2.832795,0.90100333 2.8508201,0.93025616 2.8681218,0.95994253 2.8846898,0.99004457 2.900514,1.0205441 2.915585,1.0514229 2.9298937,1.0826622 2.9434313,1.1142432 2.9561899,1.1461469 2.9681617,1.1783542 2.9793395,1.2108456 2.9897165,1.2436015 2.9992865,1.2766021 3.0080438,1.3098277 3.015983,1.3432583 3.0230994,1.3768735 3.0293887,1.4106534 3.0348471,1.4445773 3.0394713,1.4786251 3.0432586,1.512776 3.0462066,1.5470096 3.0483136,1.5813053 3.0495783,1.6156423" fill="#b1b1b1"/></g></svg>
